<svg width="483" height="306" viewBox="0 0 483 306" fill="none" xmlns="http://www.w3.org/2000/svg">
<path d="M481.913 28.8222L482.042 276.229C482.056 292.136 469.141 305.051 453.22 305.066L28.9806 305.296C26.3343 305.296 23.7598 304.936 21.3292 304.26C9.11848 300.924 0.143837 289.763 0.129454 276.488L1.20138e-05 29.0811C-0.0143704 13.1741 12.8867 0.244279 28.8224 0.244279L453.076 0.0141602C458.757 0.0141602 464.093 1.66814 468.551 4.54463C476.591 9.63601 481.913 18.5963 481.913 28.8222Z" fill="url(#paint0_linear_69_5)"/>
<path opacity="0.53" d="M453.516 305.27L148.364 305.429C145.718 305.429 143.143 305.069 140.713 304.393L276.08 168.882C280.122 164.826 285.055 162.208 290.247 161.101C299.538 159.001 309.706 161.59 316.955 168.867L453.516 305.27Z" fill="url(#paint1_linear_69_5)"/>
<path opacity="0.53" d="M132.247 110.443L0.115069 242.718L1.20004e-05 29.0955C-0.0143704 13.1742 12.9011 0.258748 28.808 0.244366L62.8225 0.22998L132.232 69.5677C143.537 80.8292 143.551 99.1524 132.247 110.443Z" fill="url(#paint2_linear_69_5)"/>
<path opacity="0.53" d="M237.411 0L195.917 41.5509C184.641 52.8555 166.318 52.8699 155.042 41.5796L113.491 0.0719111L237.411 0Z" fill="url(#paint3_linear_69_5)"/>
<path opacity="0.53" d="M481.913 28.8224L482.028 249.78C474.275 250.082 466.408 247.292 460.483 241.352L284.945 66.001C273.64 54.7252 273.626 36.3876 284.916 25.0974L309.913 0.0719111L453.061 0C458.742 0 464.078 1.65398 468.537 4.53047C476.591 9.63624 481.913 18.5965 481.913 28.8224Z" fill="url(#paint4_linear_69_5)"/>
<text fill="white" xml:space="preserve" style="white-space: pre" font-family="Inria Sans" font-size="20" font-weight="bold" letter-spacing="0em"><tspan x="47" y="66.53">Carte  Membre </tspan></text>
<g clip-path="url(#clip0_69_5)">
<mask id="mask0_69_5" style="mask-type:luminance" maskUnits="userSpaceOnUse" x="105" y="115" width="284" height="76">
<path d="M388.368 115.167H105.115V190.548H388.368V115.167Z" fill="white"/>
</mask>
<g mask="url(#mask0_69_5)">
<path fill-rule="evenodd" clip-rule="evenodd" d="M132.261 176.414C117.269 176.414 105.115 164.285 105.115 149.324C105.115 134.362 117.269 122.233 132.261 122.233C147.252 122.233 159.406 134.362 159.406 149.324C159.406 164.285 147.252 176.414 132.261 176.414ZM141.565 157.946C140.243 156.212 138.921 154.233 137.599 152.009C139.903 151.406 142.207 150.219 144.511 148.447C145.379 147.731 146.059 146.846 146.55 145.79C147.079 144.697 147.343 143.566 147.343 142.398C147.343 138.629 145.719 135.821 142.471 133.974C139.223 132.127 135.126 131.204 130.178 131.204C127.27 131.204 124.287 131.449 121.227 131.939C120.774 132.09 120.34 132.372 119.924 132.787C119.547 133.164 119.358 133.616 119.358 134.144C119.358 134.822 119.396 135.576 119.471 136.405C119.547 137.234 119.603 137.819 119.641 138.158C119.868 140.118 119.981 141.682 119.981 142.85C119.981 144.283 119.868 146.506 119.641 149.522C119.377 152.235 119.245 154.666 119.245 156.815C119.245 158.85 119.32 160.603 119.471 162.073C119.622 163.543 119.962 164.805 120.491 165.861C121.02 166.652 121.775 167.048 122.757 167.048C123.588 167.048 124.324 166.822 124.966 166.369C125.646 165.917 125.986 165.352 125.986 164.673C125.986 163.656 125.873 162.016 125.646 159.755C125.42 157.569 125.306 155.835 125.306 154.553C128.441 154.403 130.745 154.026 132.218 153.423C132.406 153.724 132.992 154.761 133.974 156.532C135.22 158.831 136.315 160.697 137.259 162.129C138.204 163.561 139.28 164.711 140.489 165.578C141.848 166.558 143.113 167.048 144.284 167.048C145.115 167.048 145.814 166.859 146.38 166.482C146.984 166.106 147.287 165.653 147.287 165.126C147.287 164.786 147.154 164.485 146.89 164.221C144.7 161.733 142.925 159.642 141.565 157.946ZM138.506 137.819C140.432 138.949 141.395 140.419 141.395 142.228C141.395 143.359 140.904 144.339 139.922 145.168C138.978 145.96 137.939 146.582 136.806 147.034C135.711 147.449 134.314 147.92 132.614 148.447C131.708 148.674 130.424 148.862 128.762 149.013C128.535 149.05 128.063 149.107 127.346 149.182C126.628 149.22 125.948 149.314 125.306 149.465C125.306 147.656 125.363 145.96 125.476 144.377C125.589 142.794 125.646 141.173 125.646 139.515L125.589 136.631C127.138 136.254 128.705 136.066 130.291 136.066C133.842 136.066 136.58 136.65 138.506 137.819Z" fill="white"/>
<path d="M189.708 164.014C190.425 164.014 190.954 164.296 191.294 164.862C191.672 165.389 191.861 165.974 191.861 166.614C191.861 167.406 191.728 167.971 191.464 168.31C191.237 168.612 190.784 168.932 190.104 169.272C188.518 170.025 186.554 170.628 184.213 171.081C181.871 171.533 179.36 171.759 176.678 171.759C173.317 171.759 170.843 171.194 169.257 170.063C167.708 168.932 166.745 167.575 166.368 165.992C166.028 164.372 165.858 162.261 165.858 159.66C165.858 156.871 165.971 154.139 166.198 151.463C166.424 148.749 166.821 145.3 167.387 141.116C167.652 139.307 168.369 138.007 169.54 137.215C170.711 136.386 171.995 135.972 173.392 135.972C174.563 135.972 176.47 135.934 179.114 135.859L184.043 135.802C186.082 135.802 187.555 135.859 188.461 135.972C189.594 136.198 190.425 136.462 190.954 136.763C191.521 137.027 191.804 137.498 191.804 138.177C191.804 138.93 191.539 139.665 191.011 140.382C190.52 141.098 189.764 141.456 188.745 141.456C187.574 141.456 185.893 141.38 183.703 141.23C181.512 141.079 179.869 141.003 178.774 141.003C177.83 141.003 176.905 141.06 175.998 141.173C174.941 141.248 174.186 141.38 173.732 141.569C173.279 141.757 173.015 142.078 172.939 142.53C172.41 146.412 172.146 149.277 172.146 151.123C173.015 151.236 173.865 151.293 174.695 151.293C175.753 151.293 176.886 151.236 178.094 151.123C179.303 151.01 180.077 150.935 180.417 150.897C182.419 150.709 184.137 150.615 185.572 150.615C186.403 150.615 187.026 150.765 187.442 151.067C187.895 151.368 188.122 151.783 188.122 152.311C188.122 153.14 187.895 153.781 187.442 154.233C187.026 154.685 186.271 155.024 185.176 155.251C183.854 155.514 182.211 155.722 180.247 155.872C178.321 156.023 176.433 156.099 174.582 156.099C173.94 156.099 173.053 156.061 171.92 155.986C171.806 158.285 171.75 160.414 171.75 162.374C171.75 165.05 173.525 166.388 177.075 166.388C178.963 166.388 180.53 166.256 181.777 165.992C183.023 165.729 184.458 165.352 186.082 164.862C187.593 164.296 188.801 164.014 189.708 164.014ZM206.973 169.667C206.859 170.233 206.519 170.723 205.953 171.137C205.424 171.514 204.669 171.703 203.687 171.703C202.856 171.703 202.195 171.476 201.704 171.024C201.251 170.572 201.005 170.101 200.968 169.611C201.194 168.028 201.307 165.653 201.307 162.487C201.307 160.603 201.194 157.7 200.968 153.781C200.703 150.087 200.571 146.808 200.571 143.943C200.571 142.398 200.647 140.815 200.798 139.194C200.798 138.667 201.1 138.101 201.704 137.498C202.346 136.895 203.215 136.518 204.31 136.367C207.898 135.991 212.298 135.802 217.509 135.802H219.322C220.682 135.802 222.004 136.047 223.288 136.537C224.61 137.027 225.271 137.875 225.271 139.081C225.271 139.873 225.082 140.495 224.704 140.947C224.326 141.399 223.628 141.625 222.608 141.625C222.117 141.625 221.551 141.588 220.909 141.512C220.266 141.437 219.813 141.38 219.549 141.343C218.114 141.116 217 141.003 216.207 141.003C211.826 141.003 208.521 141.305 206.293 141.908C206.293 143.152 206.33 145.168 206.406 147.957L206.463 151.576C208.427 151.576 210.183 151.5 211.731 151.35C213.28 151.161 214.167 151.048 214.394 151.01C216.358 150.784 217.661 150.671 218.303 150.671C219.209 150.671 219.964 150.878 220.569 151.293C221.211 151.67 221.532 152.273 221.532 153.102C221.532 154.987 220.21 155.929 217.566 155.929C216.924 155.929 216.358 155.948 215.867 155.986C215.376 156.023 214.96 156.061 214.62 156.099C213.261 156.249 212.184 156.325 211.391 156.325C209.654 156.325 208.181 156.381 206.973 156.494C206.973 157.889 207.029 159.359 207.142 160.904C207.142 161.394 207.161 162.148 207.199 163.166C207.275 164.183 207.312 165.107 207.312 165.936C207.312 166.652 207.294 167.312 207.256 167.915C207.218 168.518 207.124 169.102 206.973 169.667ZM238.396 138.912C238.396 140.005 238.359 141.72 238.283 144.056L238.226 148.466C238.226 152.047 238.491 155.043 239.019 157.455C239.359 159.039 239.718 160.245 240.096 161.074C240.511 161.865 241.134 162.77 241.965 163.788C242.607 164.541 243.438 165.144 244.458 165.597C245.515 166.011 246.554 166.219 247.574 166.219C249.349 166.219 250.822 165.955 251.992 165.427C253.201 164.899 254.107 163.995 254.712 162.713C255.845 160.377 256.411 157.493 256.411 154.063C256.411 151.915 256.279 149.295 256.015 146.205C255.788 142.813 255.675 140.325 255.675 138.742C255.675 137.875 256.09 137.178 256.921 136.65C257.752 136.122 258.507 135.859 259.187 135.859C260.358 135.859 261.151 136.179 261.566 136.82C262.02 137.46 262.246 138.214 262.246 139.081C262.246 140.174 262.19 141.116 262.076 141.908C262.001 142.888 261.963 143.585 261.963 144C261.963 145.432 262.038 147.694 262.19 150.784C262.227 151.576 262.265 152.499 262.303 153.554C262.341 154.61 262.359 155.741 262.359 156.947C262.359 159.51 261.755 161.941 260.547 164.24C259.338 166.501 257.639 168.329 255.448 169.724C253.258 171.118 250.765 171.816 247.97 171.816C243.627 171.816 240.285 170.666 237.943 168.367C235.602 166.03 234.015 162.789 233.184 158.643C232.693 156.193 232.372 153.404 232.221 150.275C232.108 147.147 232.051 143.189 232.051 138.403C232.051 137.8 232.335 137.234 232.901 136.707C233.505 136.179 234.148 135.915 234.827 135.915C237.207 135.915 238.396 136.914 238.396 138.912ZM296.241 164.523C296.959 164.523 297.488 164.805 297.828 165.371C298.205 165.898 298.394 166.482 298.394 167.123C298.394 167.915 298.262 168.48 297.998 168.819C297.771 169.121 297.299 169.441 296.581 169.78C295.071 170.497 293.371 171.005 291.483 171.307C289.632 171.608 287.31 171.759 284.515 171.759C281.154 171.759 278.566 171.194 276.754 170.063C274.979 168.895 273.808 167.444 273.241 165.71C272.675 163.976 272.392 161.96 272.392 159.66V156.099C272.392 153.649 272.448 151.293 272.562 149.032C272.713 146.77 272.996 144.132 273.411 141.116C273.676 139.307 274.393 138.007 275.564 137.215C276.735 136.386 278.019 135.972 279.416 135.972C280.927 135.972 283.004 135.934 285.648 135.859L290.576 135.802C292.578 135.802 294.051 135.859 294.995 135.972C296.128 136.198 296.959 136.462 297.488 136.763C298.054 137.027 298.338 137.498 298.338 138.177C298.338 138.93 298.073 139.665 297.544 140.382C297.053 141.098 296.298 141.456 295.278 141.456C294.108 141.456 292.427 141.38 290.237 141.23C288.046 141.079 286.403 141.003 285.308 141.003C283.948 141.003 282.853 141.06 282.022 141.173C280.965 141.248 280.209 141.38 279.756 141.569C279.303 141.757 279.039 142.078 278.963 142.53C278.434 146.412 278.17 149.277 278.17 151.123C279.001 151.236 279.888 151.293 280.833 151.293C282.041 151.293 284.062 151.161 286.894 150.897C288.971 150.709 290.69 150.615 292.049 150.615C292.918 150.615 293.56 150.765 293.975 151.067C294.391 151.368 294.599 151.783 294.599 152.311C294.599 153.14 294.391 153.781 293.975 154.233C293.56 154.685 292.805 155.024 291.709 155.251C290.388 155.514 288.669 155.722 286.554 155.872C284.477 156.023 282.494 156.099 280.606 156.099C279.888 156.099 279.001 156.061 277.943 155.986C277.943 158.473 278.057 160.433 278.283 161.865C278.548 163.298 279.076 164.409 279.869 165.201C280.7 165.992 281.947 166.388 283.608 166.388C287.347 166.388 290.331 166.049 292.559 165.371C294.145 164.805 295.373 164.523 296.241 164.523ZM344.039 138.798C344.039 141.06 343.964 144.226 343.813 148.297C343.775 149.277 343.737 150.464 343.699 151.858C343.661 153.215 343.643 154.798 343.643 156.607C343.643 162.525 343.964 166.765 344.606 169.328C344.568 170.27 344.209 170.949 343.529 171.363C342.849 171.74 342.151 171.929 341.433 171.929C339.959 171.929 338.977 171.401 338.486 170.346C338.033 169.253 337.806 167.726 337.806 165.766C337.806 158.492 337.92 151.764 338.146 145.583C337.429 147.015 336.749 148.598 336.107 150.332C335.503 152.028 334.691 154.403 333.671 157.455C332.613 160.772 331.707 163.392 330.952 165.314C330.234 167.236 329.479 168.725 328.686 169.78C328.459 169.893 328.006 170.12 327.326 170.459C326.684 170.76 326.118 170.911 325.627 170.911C324.833 170.911 324.267 170.779 323.927 170.515C323.587 170.252 323.285 169.875 323.021 169.385C322.756 168.895 322.53 168.499 322.341 168.197C321.737 167.293 320.962 165.804 320.018 163.731C319.074 161.658 318.205 159.491 317.412 157.229C317.11 156.438 316.827 155.684 316.562 154.968C316.336 154.214 316.109 153.517 315.883 152.876C315.429 151.519 314.976 150.257 314.523 149.088C314.108 147.882 313.749 147.034 313.447 146.544C313.447 148.542 313.39 150.539 313.277 152.537C313.201 154.949 313.163 156.683 313.163 157.738C313.163 158.492 313.201 159.51 313.277 160.791C313.503 164.711 313.617 167.293 313.617 168.537C313.617 169.441 313.39 170.214 312.937 170.855C312.484 171.495 311.785 171.816 310.841 171.816C309.821 171.816 308.99 171.627 308.348 171.25C307.744 170.836 307.423 170.233 307.385 169.441C307.423 168.8 307.442 167.764 307.442 166.332C307.442 163.429 307.328 158.812 307.102 152.48L307.045 150.445C307.045 149.013 307.121 146.977 307.272 144.339C307.31 143.698 307.347 142.944 307.385 142.078C307.423 141.211 307.442 140.268 307.442 139.251C307.442 138.082 307.838 137.234 308.631 136.707C309.425 136.141 310.444 135.859 311.691 135.859C312.446 135.859 313.201 136.047 313.957 136.424C314.75 136.801 315.335 137.347 315.713 138.064C316.468 139.609 317.223 141.437 317.979 143.548C318.734 145.621 319.754 148.579 321.038 152.424C322.246 156.08 323.209 158.869 323.927 160.791C324.645 162.676 325.249 163.957 325.74 164.636L327.043 160.791C331.31 147.788 334.181 140.099 335.654 137.724C335.994 137.272 336.579 136.876 337.41 136.537C338.279 136.16 339.09 135.972 339.846 135.972C340.412 135.972 341.244 136.33 342.34 137.046C343.473 137.724 344.039 138.309 344.039 138.798ZM381.407 170.855C380.916 170.214 380.501 169.517 380.161 168.763C379.821 167.971 379.462 167.029 379.085 165.936C379.009 165.747 378.782 165.182 378.405 164.24C378.065 163.298 377.668 162.487 377.215 161.809C374.836 162.148 372.891 162.318 371.38 162.318C370.549 162.318 369.624 162.299 368.604 162.261C367.622 162.186 366.886 162.148 366.395 162.148C364.507 161.997 362.996 161.922 361.863 161.922C361.41 162.525 361.013 163.166 360.673 163.844C360.371 164.523 359.974 165.54 359.484 166.897C358.804 168.857 358.218 170.252 357.727 171.081C357.387 171.646 356.727 171.929 355.745 171.929C354.914 171.929 354.139 171.759 353.422 171.42C352.742 171.043 352.402 170.534 352.402 169.893C352.704 168.461 353.176 166.954 353.818 165.371C354.498 163.75 355.461 161.601 356.708 158.925L358.974 153.385C360.22 150.219 361.353 147.505 362.373 145.244C363.43 142.982 364.809 140.306 366.508 137.215C366.735 136.763 367.112 136.386 367.641 136.085C368.17 135.746 368.755 135.576 369.397 135.576C370.115 135.576 370.625 135.632 370.927 135.746C371.267 135.821 371.531 135.972 371.72 136.198C371.909 136.386 372.192 136.801 372.57 137.442C373.854 139.439 374.949 141.493 375.856 143.604C376.8 145.715 377.989 148.636 379.424 152.367L380.614 155.364C381.672 158.077 382.578 160.358 383.333 162.205C384.126 164.014 384.995 165.672 385.939 167.18C386.544 168.16 386.846 168.838 386.846 169.215C386.846 170.12 386.562 170.817 385.996 171.307C385.467 171.759 384.769 171.985 383.9 171.985C382.805 171.985 381.974 171.608 381.407 170.855ZM375.572 157.173C374.968 155.891 374.099 153.668 372.966 150.502C371.796 147.109 370.625 144.414 369.454 142.417C368.736 144.226 367.679 146.563 366.282 149.427C365.337 151.199 364.261 153.762 363.052 157.116C365.47 157.418 368.076 157.569 370.87 157.569C372.872 157.569 374.439 157.437 375.572 157.173Z" fill="white"/>
</g>
</g>
<defs>
<linearGradient id="paint0_linear_69_5" x1="52.832" y1="341.054" x2="429.214" y2="-35.7402" gradientUnits="userSpaceOnUse">
<stop stop-color="#00252E"/>
<stop offset="1" stop-color="#83F8A6"/>
</linearGradient>
<linearGradient id="paint1_linear_69_5" x1="140.678" y1="232.958" x2="453.476" y2="232.787" gradientUnits="userSpaceOnUse">
<stop stop-color="#02CAFD"/>
<stop offset="1" stop-color="#83F8A6"/>
</linearGradient>
<linearGradient id="paint2_linear_69_5" x1="-56.3054" y1="186.358" x2="96.2597" y2="33.6264" gradientUnits="userSpaceOnUse">
<stop stop-color="#02CAFD"/>
<stop offset="1" stop-color="#83F8A6"/>
</linearGradient>
<linearGradient id="paint3_linear_69_5" x1="144.485" y1="31.0369" x2="206.415" y2="-30.9613" gradientUnits="userSpaceOnUse">
<stop stop-color="#02CAFD"/>
<stop offset="1" stop-color="#83F8A6"/>
</linearGradient>
<linearGradient id="paint4_linear_69_5" x1="750.438" y1="292.486" x2="212.711" y2="-25.387" gradientUnits="userSpaceOnUse">
<stop stop-color="#02CAFD"/>
<stop offset="1" stop-color="#83F8A6"/>
</linearGradient>
<clipPath id="clip0_69_5">
<rect width="283.253" height="75.3818" fill="white" transform="translate(105.115 115.167)"/>
</clipPath>
</defs>
</svg>
