<svg width="802" height="598" viewBox="0 0 802 598" fill="none" xmlns="http://www.w3.org/2000/svg">
<g clip-path="url(#clip0_123_13)">
<path d="M511.884 368.147C513.243 365.509 513.94 362.565 513.911 359.561L529.518 332.755L516.22 325.352L501.833 353.348C499.428 355.091 497.5 357.413 496.218 360.087C492.9 366.738 493.73 373.949 498.06 376.165C502.386 378.392 508.577 374.801 511.896 368.15L511.884 368.147Z" fill="#F3A3A6"/>
<path d="M436.314 60.934C446.771 60.934 455.248 52.457 455.248 42C455.248 31.543 446.771 23.0659 436.314 23.0659C425.857 23.0659 417.38 31.543 417.38 42C417.38 52.457 425.857 60.934 436.314 60.934Z" fill="#013B45"/>
<path d="M434.437 49.2227C434.011 49.2234 433.597 49.0856 433.256 48.8301L433.235 48.8142L428.785 45.4103C427.918 44.7458 427.754 43.5045 428.419 42.6378C429.083 41.7711 430.325 41.6071 431.191 42.2716L434.074 44.4818L440.884 35.5964C441.549 34.73 442.789 34.5661 443.656 35.2303L443.614 35.2894L443.657 35.2308C444.523 35.8958 444.686 37.1359 444.023 38.0026L436.012 48.4491C435.636 48.937 435.055 49.2221 434.439 49.2203L434.437 49.2227Z" fill="white"/>
<path d="M436.314 188.934C446.771 188.934 455.248 180.457 455.248 170C455.248 159.543 446.771 151.066 436.314 151.066C425.857 151.066 417.38 159.543 417.38 170C417.38 180.457 425.857 188.934 436.314 188.934Z" fill="#013B45"/>
<path d="M434.437 177.223C434.011 177.224 433.597 177.086 433.256 176.83L433.235 176.814L428.785 173.41C427.918 172.746 427.754 171.505 428.419 170.638C429.083 169.771 430.325 169.607 431.191 170.272L434.074 172.482L440.884 163.597C441.549 162.73 442.789 162.566 443.656 163.231L443.614 163.29L443.657 163.231C444.523 163.896 444.686 165.136 444.023 166.003L436.012 176.449C435.636 176.937 435.055 177.222 434.439 177.221L434.437 177.223Z" fill="white"/>
<path d="M504.767 339.349L498.826 349.25C498.826 349.25 508.728 349.25 510.708 364.102L518.629 354.201L504.767 339.349Z" fill="#E5E5E5"/>
<path d="M800.921 596.996H419.921C419.369 596.996 418.921 596.548 418.921 595.996C418.921 595.444 419.369 594.996 419.921 594.996H800.921C801.473 594.996 801.921 595.444 801.921 595.996C801.921 596.548 801.473 596.996 800.921 596.996Z" fill="#CBCBCB"/>
<path d="M365 212H0V128H365V212Z" fill="white"/>
<path d="M52.6775 155.774C50.7133 155.774 49.1211 157.367 49.1211 159.331C49.1211 161.295 50.7133 162.887 52.6775 162.887H312.337C314.301 162.887 315.893 161.295 315.893 159.331C315.893 157.367 314.301 155.774 312.337 155.774H52.6775Z" fill="#013B45"/>
<path d="M52.6782 177.113C50.714 177.109 49.1184 178.698 49.1143 180.662C49.1101 182.626 50.699 184.221 52.6632 184.226H216.822C218.787 184.226 220.379 182.633 220.379 180.669C220.379 178.705 218.787 177.113 216.822 177.113L52.6782 177.113Z" fill="#013B45"/>
<path d="M365 212H0V128H365V212ZM6 206H359V134H6V206Z" fill="#E5E5E5"/>
<path d="M365 340H0V256H365V340Z" fill="white"/>
<path d="M52.6775 283.774C50.7133 283.774 49.1211 285.367 49.1211 287.331C49.1211 289.295 50.7133 290.887 52.6775 290.887H312.337C314.301 290.887 315.893 289.295 315.893 287.331C315.893 285.367 314.301 283.774 312.337 283.774H52.6775Z" fill="#E6E6E6"/>
<path d="M52.6782 305.113C50.714 305.109 49.1184 306.698 49.1143 308.662C49.1101 310.626 50.699 312.221 52.6632 312.226H216.823C218.787 312.226 220.379 310.633 220.379 308.669C220.379 306.705 218.787 305.113 216.823 305.113H52.6782Z" fill="#E6E6E6"/>
<path d="M365 340H0V256H365V340ZM6 334H359V262H6V334Z" fill="#E5E5E5"/>
<path d="M368 84H3V0H368V84Z" fill="white"/>
<path d="M55.6779 27.7744C53.7137 27.778 52.1244 29.3732 52.1279 31.3373C52.1315 33.2964 53.7188 34.8837 55.6779 34.8872H315.337C317.301 34.8836 318.891 33.2885 318.887 31.3243C318.884 29.3653 317.296 27.778 315.337 27.7744H55.6779Z" fill="#013B45"/>
<path d="M55.6782 49.1128C53.714 49.1087 52.1184 50.6976 52.1143 52.6617C52.1101 54.6259 53.699 56.2215 55.6632 56.2256H219.822C221.787 56.2292 223.382 54.6398 223.385 52.6757C223.389 50.7115 221.8 49.1164 219.835 49.1128C219.831 49.1128 219.827 49.1128 219.822 49.1128L55.6782 49.1128Z" fill="#013B45"/>
<path d="M368 84H3V0H368V84ZM9 78H362V6H9V78Z" fill="#013B45"/>
<path d="M739.248 597.457V525.117C739.248 525.117 767.44 576.403 739.248 597.457Z" fill="#DEEBED"/>
<path d="M740.989 597.445L687.7 548.523C687.7 548.523 744.545 562.439 740.989 597.445Z" fill="#D0E3E6"/>
<path d="M484.314 374.868C494.771 374.868 503.248 366.391 503.248 355.934C503.248 345.477 494.771 337 484.314 337C473.857 337 465.38 345.477 465.38 355.934C465.38 366.391 473.857 374.868 484.314 374.868Z" fill="#013B45"/>
<path d="M482.427 363.4C482.001 363.401 481.586 363.263 481.245 363.008L481.224 362.992L476.774 359.588C475.908 358.923 475.744 357.682 476.408 356.815C477.073 355.949 478.314 355.785 479.181 356.449L482.063 358.659L488.874 349.774C489.538 348.908 490.779 348.744 491.645 349.408L491.603 349.467L491.647 349.408C492.512 350.074 492.675 351.314 492.012 352.18L484.001 362.627C483.626 363.115 483.044 363.4 482.428 363.398L482.427 363.4Z" fill="white"/>
<path fill-rule="evenodd" clip-rule="evenodd" d="M235.5 187C230.806 187 227 183.194 227 178.5C227 173.806 230.806 170 235.5 170C240.194 170 244 173.806 244 178.5C244 183.194 240.194 187 235.5 187ZM237.142 180.53C236.909 180.224 236.676 179.874 236.442 179.48C236.849 179.374 237.256 179.164 237.662 178.85C237.816 178.724 237.936 178.567 238.022 178.38C238.116 178.187 238.162 177.987 238.162 177.78C238.162 177.114 237.876 176.617 237.302 176.29C236.729 175.964 236.006 175.8 235.132 175.8C234.619 175.8 234.092 175.844 233.552 175.93C233.472 175.957 233.396 176.007 233.322 176.08C233.256 176.147 233.222 176.227 233.222 176.32C233.222 176.44 233.229 176.574 233.242 176.72C233.256 176.867 233.266 176.97 233.272 177.03C233.312 177.377 233.332 177.654 233.332 177.86C233.332 178.114 233.312 178.507 233.272 179.04C233.226 179.52 233.202 179.95 233.202 180.33C233.202 180.69 233.216 181 233.242 181.26C233.269 181.52 233.329 181.744 233.422 181.93C233.516 182.07 233.649 182.14 233.822 182.14C233.969 182.14 234.099 182.1 234.212 182.02C234.332 181.94 234.392 181.84 234.392 181.72C234.392 181.54 234.372 181.25 234.332 180.85C234.292 180.464 234.272 180.157 234.272 179.93C234.826 179.904 235.232 179.837 235.492 179.73C235.526 179.784 235.629 179.967 235.802 180.28C236.022 180.687 236.216 181.017 236.382 181.27C236.549 181.524 236.739 181.727 236.952 181.88C237.192 182.054 237.416 182.14 237.622 182.14C237.769 182.14 237.892 182.107 237.992 182.04C238.099 181.974 238.152 181.894 238.152 181.8C238.152 181.74 238.129 181.687 238.082 181.64C237.696 181.2 237.382 180.83 237.142 180.53ZM236.602 176.97C236.942 177.17 237.112 177.43 237.112 177.75C237.112 177.95 237.026 178.124 236.852 178.27C236.686 178.41 236.502 178.52 236.302 178.6C236.109 178.674 235.862 178.757 235.562 178.85C235.402 178.89 235.176 178.924 234.882 178.95C234.842 178.957 234.759 178.967 234.632 178.98C234.506 178.987 234.386 179.004 234.272 179.03C234.272 178.71 234.282 178.41 234.302 178.13C234.322 177.85 234.332 177.564 234.332 177.27L234.322 176.76C234.596 176.694 234.872 176.66 235.152 176.66C235.779 176.66 236.262 176.764 236.602 176.97Z" fill="#013B45"/>
<path d="M250.932 179.64C251.059 179.64 251.152 179.69 251.212 179.79C251.279 179.883 251.312 179.987 251.312 180.1C251.312 180.24 251.289 180.34 251.242 180.4C251.202 180.453 251.122 180.51 251.002 180.57C250.722 180.703 250.376 180.81 249.962 180.89C249.549 180.97 249.106 181.01 248.632 181.01C248.039 181.01 247.602 180.91 247.322 180.71C247.049 180.51 246.879 180.27 246.812 179.99C246.752 179.703 246.722 179.33 246.722 178.87C246.722 178.377 246.742 177.893 246.782 177.42C246.822 176.94 246.892 176.33 246.992 175.59C247.039 175.27 247.166 175.04 247.372 174.9C247.579 174.753 247.806 174.68 248.052 174.68C248.259 174.68 248.596 174.673 249.062 174.66L249.932 174.65C250.292 174.65 250.552 174.66 250.712 174.68C250.912 174.72 251.059 174.767 251.152 174.82C251.252 174.867 251.302 174.95 251.302 175.07C251.302 175.203 251.256 175.333 251.162 175.46C251.076 175.587 250.942 175.65 250.762 175.65C250.556 175.65 250.259 175.637 249.872 175.61C249.486 175.583 249.196 175.57 249.002 175.57C248.836 175.57 248.672 175.58 248.512 175.6C248.326 175.613 248.192 175.637 248.112 175.67C248.032 175.703 247.986 175.76 247.972 175.84C247.879 176.527 247.832 177.033 247.832 177.36C247.986 177.38 248.136 177.39 248.282 177.39C248.469 177.39 248.669 177.38 248.882 177.36C249.096 177.34 249.232 177.327 249.292 177.32C249.646 177.287 249.949 177.27 250.202 177.27C250.349 177.27 250.459 177.297 250.532 177.35C250.612 177.403 250.652 177.477 250.652 177.57C250.652 177.717 250.612 177.83 250.532 177.91C250.459 177.99 250.326 178.05 250.132 178.09C249.899 178.137 249.609 178.173 249.262 178.2C248.922 178.227 248.589 178.24 248.262 178.24C248.149 178.24 247.992 178.233 247.792 178.22C247.772 178.627 247.762 179.003 247.762 179.35C247.762 179.823 248.076 180.06 248.702 180.06C249.036 180.06 249.312 180.037 249.532 179.99C249.752 179.943 250.006 179.877 250.292 179.79C250.559 179.69 250.772 179.64 250.932 179.64ZM253.98 180.64C253.96 180.74 253.9 180.827 253.8 180.9C253.707 180.967 253.573 181 253.4 181C253.253 181 253.137 180.96 253.05 180.88C252.97 180.8 252.927 180.717 252.92 180.63C252.96 180.35 252.98 179.93 252.98 179.37C252.98 179.037 252.96 178.523 252.92 177.83C252.873 177.177 252.85 176.597 252.85 176.09C252.85 175.817 252.863 175.537 252.89 175.25C252.89 175.157 252.943 175.057 253.05 174.95C253.163 174.843 253.317 174.777 253.51 174.75C254.143 174.683 254.92 174.65 255.84 174.65H256.16C256.4 174.65 256.633 174.693 256.86 174.78C257.093 174.867 257.21 175.017 257.21 175.23C257.21 175.37 257.177 175.48 257.11 175.56C257.043 175.64 256.92 175.68 256.74 175.68C256.653 175.68 256.553 175.673 256.44 175.66C256.327 175.647 256.247 175.637 256.2 175.63C255.947 175.59 255.75 175.57 255.61 175.57C254.837 175.57 254.253 175.623 253.86 175.73C253.86 175.95 253.867 176.307 253.88 176.8L253.89 177.44C254.237 177.44 254.547 177.427 254.82 177.4C255.093 177.367 255.25 177.347 255.29 177.34C255.637 177.3 255.867 177.28 255.98 177.28C256.14 177.28 256.273 177.317 256.38 177.39C256.493 177.457 256.55 177.563 256.55 177.71C256.55 178.043 256.317 178.21 255.85 178.21C255.737 178.21 255.637 178.213 255.55 178.22C255.463 178.227 255.39 178.233 255.33 178.24C255.09 178.267 254.9 178.28 254.76 178.28C254.453 178.28 254.193 178.29 253.98 178.31C253.98 178.557 253.99 178.817 254.01 179.09C254.01 179.177 254.013 179.31 254.02 179.49C254.033 179.67 254.04 179.833 254.04 179.98C254.04 180.107 254.037 180.223 254.03 180.33C254.023 180.437 254.007 180.54 253.98 180.64ZM259.527 175.2C259.527 175.393 259.52 175.697 259.507 176.11L259.497 176.89C259.497 177.523 259.544 178.053 259.637 178.48C259.697 178.76 259.76 178.973 259.827 179.12C259.9 179.26 260.01 179.42 260.157 179.6C260.27 179.733 260.417 179.84 260.597 179.92C260.784 179.993 260.967 180.03 261.147 180.03C261.46 180.03 261.72 179.983 261.927 179.89C262.14 179.797 262.3 179.637 262.407 179.41C262.607 178.997 262.707 178.487 262.707 177.88C262.707 177.5 262.684 177.037 262.637 176.49C262.597 175.89 262.577 175.45 262.577 175.17C262.577 175.017 262.65 174.893 262.797 174.8C262.944 174.707 263.077 174.66 263.197 174.66C263.404 174.66 263.544 174.717 263.617 174.83C263.697 174.943 263.737 175.077 263.737 175.23C263.737 175.423 263.727 175.59 263.707 175.73C263.694 175.903 263.687 176.027 263.687 176.1C263.687 176.353 263.7 176.753 263.727 177.3C263.734 177.44 263.74 177.603 263.747 177.79C263.754 177.977 263.757 178.177 263.757 178.39C263.757 178.843 263.65 179.273 263.437 179.68C263.224 180.08 262.924 180.403 262.537 180.65C262.15 180.897 261.71 181.02 261.217 181.02C260.45 181.02 259.86 180.817 259.447 180.41C259.034 179.997 258.754 179.423 258.607 178.69C258.52 178.257 258.464 177.763 258.437 177.21C258.417 176.657 258.407 175.957 258.407 175.11C258.407 175.003 258.457 174.903 258.557 174.81C258.664 174.717 258.777 174.67 258.897 174.67C259.317 174.67 259.527 174.847 259.527 175.2ZM269.738 179.73C269.864 179.73 269.958 179.78 270.018 179.88C270.084 179.973 270.118 180.077 270.118 180.19C270.118 180.33 270.094 180.43 270.048 180.49C270.008 180.543 269.924 180.6 269.798 180.66C269.531 180.787 269.231 180.877 268.898 180.93C268.571 180.983 268.161 181.01 267.668 181.01C267.074 181.01 266.618 180.91 266.298 180.71C265.984 180.503 265.778 180.247 265.678 179.94C265.578 179.633 265.528 179.277 265.528 178.87V178.24C265.528 177.807 265.538 177.39 265.558 176.99C265.584 176.59 265.634 176.123 265.708 175.59C265.754 175.27 265.881 175.04 266.088 174.9C266.294 174.753 266.521 174.68 266.768 174.68C267.034 174.68 267.401 174.673 267.868 174.66L268.738 174.65C269.091 174.65 269.351 174.66 269.518 174.68C269.718 174.72 269.864 174.767 269.958 174.82C270.058 174.867 270.108 174.95 270.108 175.07C270.108 175.203 270.061 175.333 269.968 175.46C269.881 175.587 269.748 175.65 269.568 175.65C269.361 175.65 269.064 175.637 268.678 175.61C268.291 175.583 268.001 175.57 267.808 175.57C267.568 175.57 267.374 175.58 267.228 175.6C267.041 175.613 266.908 175.637 266.828 175.67C266.748 175.703 266.701 175.76 266.688 175.84C266.594 176.527 266.548 177.033 266.548 177.36C266.694 177.38 266.851 177.39 267.018 177.39C267.231 177.39 267.588 177.367 268.088 177.32C268.454 177.287 268.758 177.27 268.998 177.27C269.151 177.27 269.264 177.297 269.338 177.35C269.411 177.403 269.448 177.477 269.448 177.57C269.448 177.717 269.411 177.83 269.338 177.91C269.264 177.99 269.131 178.05 268.938 178.09C268.704 178.137 268.401 178.173 268.028 178.2C267.661 178.227 267.311 178.24 266.978 178.24C266.851 178.24 266.694 178.233 266.508 178.22C266.508 178.66 266.528 179.007 266.568 179.26C266.614 179.513 266.708 179.71 266.848 179.85C266.994 179.99 267.214 180.06 267.508 180.06C268.168 180.06 268.694 180 269.088 179.88C269.368 179.78 269.584 179.73 269.738 179.73ZM278.175 175.18C278.175 175.58 278.161 176.14 278.135 176.86C278.128 177.033 278.121 177.243 278.115 177.49C278.108 177.73 278.105 178.01 278.105 178.33C278.105 179.377 278.161 180.127 278.275 180.58C278.268 180.747 278.205 180.867 278.085 180.94C277.965 181.007 277.841 181.04 277.715 181.04C277.455 181.04 277.281 180.947 277.195 180.76C277.115 180.567 277.075 180.297 277.075 179.95C277.075 178.663 277.095 177.473 277.135 176.38C277.008 176.633 276.888 176.913 276.775 177.22C276.668 177.52 276.525 177.94 276.345 178.48C276.158 179.067 275.998 179.53 275.865 179.87C275.738 180.21 275.605 180.473 275.465 180.66C275.425 180.68 275.345 180.72 275.225 180.78C275.111 180.833 275.011 180.86 274.925 180.86C274.785 180.86 274.685 180.837 274.625 180.79C274.565 180.743 274.511 180.677 274.465 180.59C274.418 180.503 274.378 180.433 274.345 180.38C274.238 180.22 274.101 179.957 273.935 179.59C273.768 179.223 273.615 178.84 273.475 178.44C273.421 178.3 273.371 178.167 273.325 178.04C273.285 177.907 273.245 177.783 273.205 177.67C273.125 177.43 273.045 177.207 272.965 177C272.891 176.787 272.828 176.637 272.775 176.55C272.775 176.903 272.765 177.257 272.745 177.61C272.731 178.037 272.725 178.343 272.725 178.53C272.725 178.663 272.731 178.843 272.745 179.07C272.785 179.763 272.805 180.22 272.805 180.44C272.805 180.6 272.765 180.737 272.685 180.85C272.605 180.963 272.481 181.02 272.315 181.02C272.135 181.02 271.988 180.987 271.875 180.92C271.768 180.847 271.711 180.74 271.705 180.6C271.711 180.487 271.715 180.303 271.715 180.05C271.715 179.537 271.695 178.72 271.655 177.6L271.645 177.24C271.645 176.987 271.658 176.627 271.685 176.16C271.691 176.047 271.698 175.913 271.705 175.76C271.711 175.607 271.715 175.44 271.715 175.26C271.715 175.053 271.785 174.903 271.925 174.81C272.065 174.71 272.245 174.66 272.465 174.66C272.598 174.66 272.731 174.693 272.865 174.76C273.005 174.827 273.108 174.923 273.175 175.05C273.308 175.323 273.441 175.647 273.575 176.02C273.708 176.387 273.888 176.91 274.115 177.59C274.328 178.237 274.498 178.73 274.625 179.07C274.751 179.403 274.858 179.63 274.945 179.75L275.175 179.07C275.928 176.77 276.435 175.41 276.695 174.99C276.755 174.91 276.858 174.84 277.005 174.78C277.158 174.713 277.301 174.68 277.435 174.68C277.535 174.68 277.681 174.743 277.875 174.87C278.075 174.99 278.175 175.093 278.175 175.18ZM284.771 180.85C284.685 180.737 284.611 180.613 284.551 180.48C284.491 180.34 284.428 180.173 284.361 179.98C284.348 179.947 284.308 179.847 284.241 179.68C284.181 179.513 284.111 179.37 284.031 179.25C283.611 179.31 283.268 179.34 283.001 179.34C282.855 179.34 282.691 179.337 282.511 179.33C282.338 179.317 282.208 179.31 282.121 179.31C281.788 179.283 281.521 179.27 281.321 179.27C281.241 179.377 281.171 179.49 281.111 179.61C281.058 179.73 280.988 179.91 280.901 180.15C280.781 180.497 280.678 180.743 280.591 180.89C280.531 180.99 280.415 181.04 280.241 181.04C280.095 181.04 279.958 181.01 279.831 180.95C279.711 180.883 279.651 180.793 279.651 180.68C279.705 180.427 279.788 180.16 279.901 179.88C280.021 179.593 280.191 179.213 280.411 178.74L280.811 177.76C281.031 177.2 281.231 176.72 281.411 176.32C281.598 175.92 281.841 175.447 282.141 174.9C282.181 174.82 282.248 174.753 282.341 174.7C282.435 174.64 282.538 174.61 282.651 174.61C282.778 174.61 282.868 174.62 282.921 174.64C282.981 174.653 283.028 174.68 283.061 174.72C283.095 174.753 283.145 174.827 283.211 174.94C283.438 175.293 283.631 175.657 283.791 176.03C283.958 176.403 284.168 176.92 284.421 177.58L284.631 178.11C284.818 178.59 284.978 178.993 285.111 179.32C285.251 179.64 285.405 179.933 285.571 180.2C285.678 180.373 285.731 180.493 285.731 180.56C285.731 180.72 285.681 180.843 285.581 180.93C285.488 181.01 285.365 181.05 285.211 181.05C285.018 181.05 284.871 180.983 284.771 180.85ZM283.741 178.43C283.635 178.203 283.481 177.81 283.281 177.25C283.075 176.65 282.868 176.173 282.661 175.82C282.535 176.14 282.348 176.553 282.101 177.06C281.935 177.373 281.745 177.827 281.531 178.42C281.958 178.473 282.418 178.5 282.911 178.5C283.265 178.5 283.541 178.477 283.741 178.43Z" fill="#013B45"/>
<path d="M540.999 152.041L545.071 141.854L559.605 130.555L560.082 130.703C560.544 130.847 561.205 131.053 561.999 131.301C563.587 131.796 565.71 132.459 567.846 133.128C569.982 133.798 572.131 134.474 573.772 134.996C574.593 135.257 575.287 135.48 575.788 135.643C576.038 135.725 576.239 135.792 576.384 135.841C576.419 135.853 576.448 135.863 576.473 135.872C576.475 135.876 576.478 135.881 576.48 135.885C576.537 135.997 576.619 136.164 576.725 136.387C576.935 136.832 577.233 137.481 577.605 138.306C578.35 139.956 579.391 142.302 580.629 145.114C583.104 150.736 586.363 158.213 589.61 165.684C592.856 173.154 596.089 180.618 598.51 186.215C599.721 189.013 600.728 191.344 601.434 192.976L602.252 194.87L602.355 195.109L602.033 195.274C601.551 195.52 600.845 195.881 599.947 196.339C598.153 197.255 595.595 198.559 592.54 200.115C586.431 203.225 578.336 207.338 570.391 211.348C562.446 215.358 554.654 219.264 549.15 221.961C546.589 223.215 544.529 224.205 543.18 224.823C543.436 224.294 543.665 223.645 543.87 222.904C544.305 221.327 544.648 219.269 544.906 216.897C545.423 212.151 545.61 206.084 545.506 199.948C545.402 193.811 545.006 187.59 544.354 182.534C544.029 180.006 543.637 177.761 543.184 175.959C542.736 174.178 542.21 172.76 541.581 171.947L541.581 171.947C540.535 170.597 539.949 168.701 539.682 166.56C539.415 164.427 539.47 162.102 539.666 159.938C539.862 157.777 540.198 155.793 540.485 154.349C540.628 153.627 540.759 153.041 540.854 152.636C540.901 152.434 540.939 152.277 540.966 152.171C540.979 152.118 540.989 152.078 540.996 152.051L540.999 152.041Z" fill="#0B2126" stroke="black"/>
<path d="M585.949 169H566V200L588 192.919L585.949 169Z" fill="#F3A3A6"/>
<path d="M580 548H559V577H580V548Z" fill="#F3A3A6"/>
<path d="M539.176 594.988C548.251 594.988 561.503 594.023 561.6 594.01C565.15 594.328 582.844 595.745 583.723 591.64C584.529 587.865 583.337 583.919 583.169 583.369C581.46 566.204 580.834 565.997 580.449 565.887C579.847 565.704 578.09 566.559 575.237 568.428L575.056 568.55L575.02 568.758C574.972 569.014 573.708 575.318 567.714 574.365C563.61 573.706 562.274 572.777 561.852 572.325C562.201 572.166 562.635 571.885 562.936 571.409C563.381 570.713 563.453 569.808 563.164 568.721C562.394 565.875 560.083 561.66 559.987 561.476L559.722 561L536.227 577.09L521.711 581.305C520.616 581.61 519.737 582.416 519.292 583.479C518.678 584.958 519.051 586.692 520.243 587.768C522.879 590.174 528.126 594.291 533.615 594.805C535.071 594.939 537.009 595 539.188 595L539.176 594.988Z" fill="#013B45"/>
<path d="M638.322 524.924L620.822 535.838L636.303 560.662L653.804 549.748L638.322 524.924Z" fill="#F3A3A6"/>
<path d="M615.3 591C618.187 591 621.375 590.589 624.058 589.222C630.831 585.798 647.3 573.761 647.397 573.676C650.561 572.067 666.308 563.841 664.913 559.921C663.625 556.316 660.558 553.631 660.137 553.268C649.743 539.743 649.117 539.912 648.732 540.021C648.118 540.19 647.084 541.836 645.628 544.92L645.544 545.114L645.628 545.308C645.724 545.562 647.938 551.526 642.356 553.897C638.53 555.53 636.918 555.469 636.329 555.3C636.545 554.973 636.762 554.514 636.774 553.945C636.798 553.123 636.389 552.312 635.571 551.562C633.43 549.578 629.279 547.267 629.099 547.171L628.629 546.917L617.08 572.938L606.963 584.189C606.193 585.036 605.868 586.173 606.049 587.31C606.301 588.883 607.528 590.129 609.092 590.407C610.68 590.685 612.906 590.988 615.336 590.988L615.3 591Z" fill="#013B45"/>
<path d="M594.635 303C594.635 303 601.286 303 611.709 323.945C622.133 344.902 608.868 428.994 608.868 428.994L646 525.538L619.948 543.868L572.392 440.462L584.117 555H554.805L532 356.682L537.206 303.012H594.635V303Z" fill="#011518"/>
<path d="M598.824 188H558.953L523 307H623L598.824 188Z" fill="#013B45"/>
<path d="M566 188.019L525.337 356H505C505 356 535.818 200.442 538.451 193.901C541.071 187.36 565.988 188.019 565.988 188.019H566Z" fill="#013B45"/>
<path d="M569 177C581.15 177 591 167.374 591 155.5C591 143.626 581.15 134 569 134C556.85 134 547 143.626 547 155.5C547 167.374 556.85 177 569 177Z" fill="#F3A3A6"/>
<path d="M541.019 151.645L546.423 152.558C551.465 132.446 562.887 139.018 563.973 138.789C565.058 138.561 581.294 156.259 579.979 174.185C578.664 192.099 601.919 200.498 601.919 200.498C601.919 200.498 610.049 215.709 602.8 243.235C595.551 270.761 610.917 280 610.917 280C641.192 277.441 622.991 235.365 618.166 227.723C613.342 220.07 616.635 206.745 616.635 206.745C624.101 200.185 615.32 185.768 615.32 185.768C615.32 185.768 616.864 166.532 612.256 162.819C607.649 159.107 607.431 149.927 607.431 149.927C599.302 114.748 572.766 121.524 572.766 121.524C538.764 117.812 541.031 151.633 541.031 151.633L541.019 151.645Z" fill="#15272B"/>
<path d="M640.615 369.236C640.067 366.355 638.828 363.641 636.981 361.333L632.882 331L618 333.367L623.755 363.88C622.957 366.702 622.861 369.667 623.469 372.536C624.911 379.722 629.927 384.804 634.658 383.895C639.388 382.986 642.057 376.422 640.603 369.236H640.615Z" fill="#F3A3A6"/>
<path d="M619.669 354H640C640 354 609.192 198.86 606.56 192.337C603.941 185.813 582 188.585 582 188.585L619.669 354Z" fill="#013B45"/>
</g>
<defs>
<clipPath id="clip0_123_13">
<rect width="801.921" height="597.457" fill="white"/>
</clipPath>
</defs>
</svg>
