<svg width="120" height="32" viewBox="0 0 120 32" fill="none" xmlns="http://www.w3.org/2000/svg">
<g clip-path="url(#clip0_53_22)">
<path fill-rule="evenodd" clip-rule="evenodd" d="M11.5 26C5.14873 26 0 20.8513 0 14.5C0 8.14873 5.14873 3 11.5 3C17.8513 3 23 8.14873 23 14.5C23 20.8513 17.8513 26 11.5 26ZM15.4418 18.16C14.8818 17.424 14.3218 16.584 13.7618 15.64C14.7378 15.384 15.7138 14.88 16.6898 14.128C17.0578 13.824 17.3458 13.448 17.5538 13C17.7778 12.536 17.8898 12.056 17.8898 11.56C17.8898 9.96 17.2018 8.768 15.8258 7.984C14.4498 7.2 12.7138 6.808 10.6178 6.808C9.38581 6.808 8.12181 6.912 6.82581 7.12C6.63381 7.184 6.44981 7.304 6.27381 7.48C6.11381 7.64 6.03381 7.832 6.03381 8.056C6.03381 8.344 6.04981 8.664 6.08181 9.016C6.11381 9.368 6.13781 9.616 6.15381 9.76C6.24981 10.592 6.29781 11.256 6.29781 11.752C6.29781 12.36 6.24981 13.304 6.15381 14.584C6.04181 15.736 5.98581 16.768 5.98581 17.68C5.98581 18.544 6.01781 19.288 6.08181 19.912C6.14581 20.536 6.28981 21.072 6.51381 21.52C6.73781 21.856 7.05781 22.024 7.47381 22.024C7.82581 22.024 8.13781 21.928 8.40981 21.736C8.69781 21.544 8.84181 21.304 8.84181 21.016C8.84181 20.584 8.79381 19.888 8.69781 18.928C8.60181 18 8.55381 17.264 8.55381 16.72C9.88181 16.656 10.8578 16.496 11.4818 16.24C11.5618 16.368 11.8098 16.808 12.2258 17.56C12.7538 18.536 13.2178 19.328 13.6178 19.936C14.0178 20.544 14.4738 21.032 14.9858 21.4C15.5618 21.816 16.0978 22.024 16.5938 22.024C16.9458 22.024 17.2418 21.944 17.4818 21.784C17.7378 21.624 17.8658 21.432 17.8658 21.208C17.8658 21.064 17.8098 20.936 17.6978 20.824C16.7698 19.768 16.0178 18.88 15.4418 18.16ZM14.1458 9.616C14.9618 10.096 15.3698 10.72 15.3698 11.488C15.3698 11.968 15.1618 12.384 14.7458 12.736C14.3458 13.072 13.9058 13.336 13.4258 13.528C12.9618 13.704 12.3698 13.904 11.6498 14.128C11.2658 14.224 10.7218 14.304 10.0178 14.368C9.92181 14.384 9.72181 14.408 9.41781 14.44C9.11381 14.456 8.82581 14.496 8.55381 14.56C8.55381 13.792 8.57781 13.072 8.62581 12.4C8.67381 11.728 8.69781 11.04 8.69781 10.336L8.67381 9.112C9.32981 8.952 9.99381 8.872 10.6658 8.872C12.1698 8.872 13.3298 9.12 14.1458 9.616Z" fill="#01766E"/>
<path d="M35.8375 20.736C36.1415 20.736 36.3655 20.856 36.5095 21.096C36.6695 21.32 36.7495 21.568 36.7495 21.84C36.7495 22.176 36.6935 22.416 36.5815 22.56C36.4855 22.688 36.2935 22.824 36.0055 22.968C35.3335 23.288 34.5015 23.544 33.5095 23.736C32.5175 23.928 31.4535 24.024 30.3175 24.024C28.8935 24.024 27.8455 23.784 27.1735 23.304C26.5175 22.824 26.1095 22.248 25.9495 21.576C25.8055 20.888 25.7335 19.992 25.7335 18.888C25.7335 17.704 25.7815 16.544 25.8775 15.408C25.9735 14.256 26.1415 12.792 26.3815 11.016C26.4935 10.248 26.7975 9.696 27.2935 9.36C27.7895 9.008 28.3335 8.832 28.9255 8.832C29.4215 8.832 30.2295 8.816 31.3495 8.784L33.4375 8.76C34.3015 8.76 34.9255 8.784 35.3095 8.832C35.7895 8.928 36.1415 9.04 36.3655 9.168C36.6055 9.28 36.7255 9.48 36.7255 9.768C36.7255 10.088 36.6135 10.4 36.3895 10.704C36.1815 11.008 35.8615 11.16 35.4295 11.16C34.9335 11.16 34.2215 11.128 33.2935 11.064C32.3655 11 31.6695 10.968 31.2055 10.968C30.8055 10.968 30.4135 10.992 30.0295 11.04C29.5815 11.072 29.2615 11.128 29.0695 11.208C28.8775 11.288 28.7655 11.424 28.7335 11.616C28.5095 13.264 28.3975 14.48 28.3975 15.264C28.7655 15.312 29.1255 15.336 29.4775 15.336C29.9255 15.336 30.4055 15.312 30.9175 15.264C31.4295 15.216 31.7575 15.184 31.9015 15.168C32.7495 15.088 33.4775 15.048 34.0855 15.048C34.4375 15.048 34.7015 15.112 34.8775 15.24C35.0695 15.368 35.1655 15.544 35.1655 15.768C35.1655 16.12 35.0695 16.392 34.8775 16.584C34.7015 16.776 34.3815 16.92 33.9175 17.016C33.3575 17.128 32.6615 17.216 31.8295 17.28C31.0135 17.344 30.2135 17.376 29.4295 17.376C29.1575 17.376 28.7815 17.36 28.3015 17.328C28.2535 18.304 28.2295 19.208 28.2295 20.04C28.2295 21.176 28.9815 21.744 30.4855 21.744C31.2855 21.744 31.9495 21.688 32.4775 21.576C33.0055 21.464 33.6135 21.304 34.3015 21.096C34.9415 20.856 35.4535 20.736 35.8375 20.736ZM43.1517 23.136C43.1037 23.376 42.9597 23.584 42.7197 23.76C42.4957 23.92 42.1757 24 41.7597 24C41.4077 24 41.1277 23.904 40.9197 23.712C40.7277 23.52 40.6237 23.32 40.6077 23.112C40.7037 22.44 40.7517 21.432 40.7517 20.088C40.7517 19.288 40.7037 18.056 40.6077 16.392C40.4957 14.824 40.4397 13.432 40.4397 12.216C40.4397 11.56 40.4717 10.888 40.5357 10.2C40.5357 9.976 40.6637 9.736 40.9197 9.48C41.1917 9.224 41.5597 9.064 42.0237 9C43.5437 8.84 45.4077 8.76 47.6157 8.76H48.3837C48.9597 8.76 49.5197 8.864 50.0637 9.072C50.6237 9.28 50.9037 9.64 50.9037 10.152C50.9037 10.488 50.8237 10.752 50.6637 10.944C50.5037 11.136 50.2077 11.232 49.7757 11.232C49.5677 11.232 49.3277 11.216 49.0557 11.184C48.7837 11.152 48.5917 11.128 48.4797 11.112C47.8717 11.016 47.3997 10.968 47.0637 10.968C45.2077 10.968 43.8077 11.096 42.8637 11.352C42.8637 11.88 42.8797 12.736 42.9117 13.92L42.9357 15.456C43.7677 15.456 44.5117 15.424 45.1677 15.36C45.8237 15.28 46.1997 15.232 46.2957 15.216C47.1277 15.12 47.6797 15.072 47.9517 15.072C48.3357 15.072 48.6557 15.16 48.9117 15.336C49.1837 15.496 49.3197 15.752 49.3197 16.104C49.3197 16.904 48.7597 17.304 47.6397 17.304C47.3677 17.304 47.1277 17.312 46.9197 17.328C46.7117 17.344 46.5357 17.36 46.3917 17.376C45.8157 17.44 45.3597 17.472 45.0237 17.472C44.2877 17.472 43.6637 17.496 43.1517 17.544C43.1517 18.136 43.1757 18.76 43.2237 19.416C43.2237 19.624 43.2317 19.944 43.2477 20.376C43.2797 20.808 43.2957 21.2 43.2957 21.552C43.2957 21.856 43.2877 22.136 43.2717 22.392C43.2557 22.648 43.2157 22.896 43.1517 23.136ZM56.4644 10.08C56.4644 10.544 56.4484 11.272 56.4164 12.264L56.3924 14.136C56.3924 15.656 56.5044 16.928 56.7284 17.952C56.8724 18.624 57.0244 19.136 57.1844 19.488C57.3604 19.824 57.6244 20.208 57.9764 20.64C58.2484 20.96 58.6004 21.216 59.0324 21.408C59.4804 21.584 59.9204 21.672 60.3524 21.672C61.1044 21.672 61.7284 21.56 62.2244 21.336C62.7364 21.112 63.1204 20.728 63.3764 20.184C63.8564 19.192 64.0964 17.968 64.0964 16.512C64.0964 15.6 64.0404 14.488 63.9284 13.176C63.8324 11.736 63.7844 10.68 63.7844 10.008C63.7844 9.64 63.9604 9.344 64.3124 9.12C64.6644 8.896 64.9844 8.784 65.2724 8.784C65.7684 8.784 66.1044 8.92 66.2804 9.192C66.4724 9.464 66.5684 9.784 66.5684 10.152C66.5684 10.616 66.5444 11.016 66.4964 11.352C66.4644 11.768 66.4484 12.064 66.4484 12.24C66.4484 12.848 66.4804 13.808 66.5444 15.12C66.5604 15.456 66.5764 15.848 66.5924 16.296C66.6084 16.744 66.6164 17.224 66.6164 17.736C66.6164 18.824 66.3604 19.856 65.8484 20.832C65.3364 21.792 64.6164 22.568 63.6884 23.16C62.7604 23.752 61.7044 24.048 60.5204 24.048C58.6804 24.048 57.2644 23.56 56.2724 22.584C55.2804 21.592 54.6084 20.216 54.2564 18.456C54.0484 17.416 53.9124 16.232 53.8484 14.904C53.8004 13.576 53.7764 11.896 53.7764 9.864C53.7764 9.608 53.8964 9.368 54.1364 9.144C54.3924 8.92 54.6644 8.808 54.9524 8.808C55.9604 8.808 56.4644 9.232 56.4644 10.08ZM80.9705 20.952C81.2745 20.952 81.4985 21.072 81.6425 21.312C81.8025 21.536 81.8825 21.784 81.8825 22.056C81.8825 22.392 81.8265 22.632 81.7145 22.776C81.6185 22.904 81.4185 23.04 81.1145 23.184C80.4745 23.488 79.7545 23.704 78.9545 23.832C78.1705 23.96 77.1865 24.024 76.0025 24.024C74.5785 24.024 73.4825 23.784 72.7145 23.304C71.9625 22.808 71.4665 22.192 71.2265 21.456C70.9865 20.72 70.8665 19.864 70.8665 18.888V17.376C70.8665 16.336 70.8905 15.336 70.9385 14.376C71.0025 13.416 71.1225 12.296 71.2985 11.016C71.4105 10.248 71.7145 9.696 72.2105 9.36C72.7065 9.008 73.2505 8.832 73.8425 8.832C74.4825 8.832 75.3625 8.816 76.4825 8.784L78.5705 8.76C79.4185 8.76 80.0425 8.784 80.4425 8.832C80.9225 8.928 81.2745 9.04 81.4985 9.168C81.7385 9.28 81.8585 9.48 81.8585 9.768C81.8585 10.088 81.7465 10.4 81.5225 10.704C81.3145 11.008 80.9945 11.16 80.5625 11.16C80.0665 11.16 79.3545 11.128 78.4265 11.064C77.4985 11 76.8025 10.968 76.3385 10.968C75.7625 10.968 75.2985 10.992 74.9465 11.04C74.4985 11.072 74.1785 11.128 73.9865 11.208C73.7945 11.288 73.6825 11.424 73.6505 11.616C73.4265 13.264 73.3145 14.48 73.3145 15.264C73.6665 15.312 74.0425 15.336 74.4425 15.336C74.9545 15.336 75.8105 15.28 77.0105 15.168C77.8905 15.088 78.6185 15.048 79.1945 15.048C79.5625 15.048 79.8345 15.112 80.0105 15.24C80.1865 15.368 80.2745 15.544 80.2745 15.768C80.2745 16.12 80.1865 16.392 80.0105 16.584C79.8345 16.776 79.5145 16.92 79.0505 17.016C78.4905 17.128 77.7625 17.216 76.8665 17.28C75.9865 17.344 75.1465 17.376 74.3465 17.376C74.0425 17.376 73.6665 17.36 73.2185 17.328C73.2185 18.384 73.2665 19.216 73.3625 19.824C73.4745 20.432 73.6985 20.904 74.0345 21.24C74.3865 21.576 74.9145 21.744 75.6185 21.744C77.2025 21.744 78.4665 21.6 79.4105 21.312C80.0825 21.072 80.6025 20.952 80.9705 20.952ZM101.22 10.032C101.22 10.992 101.188 12.336 101.124 14.064C101.108 14.48 101.092 14.984 101.076 15.576C101.06 16.152 101.052 16.824 101.052 17.592C101.052 20.104 101.188 21.904 101.46 22.992C101.444 23.392 101.292 23.68 101.004 23.856C100.716 24.016 100.42 24.096 100.116 24.096C99.4915 24.096 99.0755 23.872 98.8675 23.424C98.6755 22.96 98.5795 22.312 98.5795 21.48C98.5795 18.392 98.6275 15.536 98.7235 12.912C98.4195 13.52 98.1315 14.192 97.8595 14.928C97.6035 15.648 97.2595 16.656 96.8275 17.952C96.3795 19.36 95.9955 20.472 95.6755 21.288C95.3715 22.104 95.0515 22.736 94.7155 23.184C94.6195 23.232 94.4275 23.328 94.1395 23.472C93.8675 23.6 93.6275 23.664 93.4195 23.664C93.0835 23.664 92.8435 23.608 92.6995 23.496C92.5555 23.384 92.4275 23.224 92.3155 23.016C92.2035 22.808 92.1075 22.64 92.0275 22.512C91.7715 22.128 91.4435 21.496 91.0435 20.616C90.6435 19.736 90.2755 18.816 89.9395 17.856C89.8115 17.52 89.6915 17.2 89.5795 16.896C89.4835 16.576 89.3875 16.28 89.2915 16.008C89.0995 15.432 88.9075 14.896 88.7155 14.4C88.5395 13.888 88.3875 13.528 88.2595 13.32C88.2595 14.168 88.2355 15.016 88.1875 15.864C88.1555 16.888 88.1395 17.624 88.1395 18.072C88.1395 18.392 88.1555 18.824 88.1875 19.368C88.2835 21.032 88.3315 22.128 88.3315 22.656C88.3315 23.04 88.2355 23.368 88.0435 23.64C87.8515 23.912 87.5555 24.048 87.1555 24.048C86.7235 24.048 86.3715 23.968 86.0995 23.808C85.8435 23.632 85.7075 23.376 85.6915 23.04C85.7075 22.768 85.7155 22.328 85.7155 21.72C85.7155 20.488 85.6675 18.528 85.5715 15.84L85.5475 14.976C85.5475 14.368 85.5795 13.504 85.6435 12.384C85.6595 12.112 85.6755 11.792 85.6915 11.424C85.7075 11.056 85.7155 10.656 85.7155 10.224C85.7155 9.728 85.8835 9.368 86.2195 9.144C86.5555 8.904 86.9875 8.784 87.5155 8.784C87.8355 8.784 88.1555 8.864 88.4755 9.024C88.8115 9.184 89.0595 9.416 89.2195 9.72C89.5395 10.376 89.8595 11.152 90.1795 12.048C90.4995 12.928 90.9315 14.184 91.4755 15.816C91.9875 17.368 92.3955 18.552 92.6995 19.368C93.0035 20.168 93.2595 20.712 93.4675 21L94.0195 19.368C95.8275 13.848 97.0435 10.584 97.6675 9.576C97.8115 9.384 98.0595 9.216 98.4115 9.072C98.7795 8.912 99.1235 8.832 99.4435 8.832C99.6835 8.832 100.036 8.984 100.5 9.288C100.98 9.576 101.22 9.824 101.22 10.032ZM117.051 23.64C116.843 23.368 116.667 23.072 116.523 22.752C116.379 22.416 116.227 22.016 116.067 21.552C116.035 21.472 115.939 21.232 115.779 20.832C115.635 20.432 115.467 20.088 115.275 19.8C114.267 19.944 113.443 20.016 112.803 20.016C112.451 20.016 112.059 20.008 111.627 19.992C111.211 19.96 110.899 19.944 110.691 19.944C109.891 19.88 109.251 19.848 108.771 19.848C108.579 20.104 108.411 20.376 108.267 20.664C108.139 20.952 107.971 21.384 107.763 21.96C107.475 22.792 107.227 23.384 107.019 23.736C106.875 23.976 106.595 24.096 106.179 24.096C105.827 24.096 105.499 24.024 105.195 23.88C104.907 23.72 104.763 23.504 104.763 23.232C104.891 22.624 105.091 21.984 105.363 21.312C105.651 20.624 106.059 19.712 106.587 18.576L107.547 16.224C108.075 14.88 108.555 13.728 108.987 12.768C109.435 11.808 110.019 10.672 110.739 9.36C110.835 9.168 110.995 9.008 111.219 8.88C111.443 8.736 111.691 8.664 111.963 8.664C112.267 8.664 112.483 8.688 112.611 8.736C112.755 8.768 112.867 8.832 112.947 8.928C113.027 9.008 113.147 9.184 113.307 9.456C113.851 10.304 114.315 11.176 114.699 12.072C115.099 12.968 115.603 14.208 116.211 15.792L116.715 17.064C117.163 18.216 117.547 19.184 117.867 19.968C118.203 20.736 118.571 21.44 118.971 22.08C119.227 22.496 119.355 22.784 119.355 22.944C119.355 23.328 119.235 23.624 118.995 23.832C118.771 24.024 118.475 24.12 118.107 24.12C117.643 24.12 117.291 23.96 117.051 23.64ZM114.579 17.832C114.323 17.288 113.955 16.344 113.475 15C112.979 13.56 112.483 12.416 111.987 11.568C111.683 12.336 111.235 13.328 110.643 14.544C110.243 15.296 109.787 16.384 109.275 17.808C110.299 17.936 111.403 18 112.587 18C113.435 18 114.099 17.944 114.579 17.832Z" fill="#01766E"/>
</g>
<defs>
<clipPath id="clip0_53_22">
<rect width="120" height="32" fill="white"/>
</clipPath>
</defs>
</svg>
